<svg width="24" height="24" viewBox="0 0 24 24" fill="none" xmlns="http://www.w3.org/2000/svg">
<path d="M18.402 16.2762H8.88199C8.46387 16.2762 8.12524 15.9375 8.12524 15.52V5.07637C8.12512 4.65875 8.46387 4.32 8.88199 4.32H18.402C18.8201 4.32 19.1587 4.65875 19.1587 5.07637V15.52C19.1587 15.9375 18.82 16.2762 18.402 16.2762ZM9.63874 14.7632H17.645V5.83312H9.63874V14.7632Z" fill="#7E2611"/>
<path d="M10.9248 8.02038H16.3648V9.62038H10.9248V8.02038Z" fill="#7E2611"/>
<path d="M10.9248 11.0764H16.3648V12.6764H10.9248V11.0764Z" fill="#7E2611"/>
<path d="M16.6496 19.68H5.64155C5.1998 19.68 4.84155 19.3219 4.84155 18.88V6.96H6.44155V18.08H16.6496V19.68Z" fill="#7E2611"/>
</svg>
