<svg width="24" height="24" viewBox="0 0 24 24" fill="none" xmlns="http://www.w3.org/2000/svg">
<path d="M12 15.52C13.0603 15.52 13.92 16.3796 13.92 17.44C13.92 18.5004 13.0603 19.36 12 19.36C10.9396 19.36 10.08 18.5004 10.08 17.44C10.08 16.3796 10.9396 15.52 12 15.52Z" fill="#2D2B29"/>
<path d="M12 10.08C13.0603 10.08 13.92 10.9396 13.92 12C13.92 13.0604 13.0603 13.92 12 13.92C10.9396 13.92 10.08 13.0604 10.08 12C10.08 10.9396 10.9396 10.08 12 10.08Z" fill="#2D2B29"/>
<path d="M12 4.64C13.0603 4.64 13.92 5.49962 13.92 6.56C13.92 7.62037 13.0603 8.48 12 8.48C10.9396 8.48 10.08 7.62037 10.08 6.56C10.08 5.49962 10.9396 4.64 12 4.64Z" fill="#2D2B29"/>
</svg>
