<svg width="24" height="24" viewBox="0 0 24 24" fill="none" xmlns="http://www.w3.org/2000/svg">
<path d="M18.2695 5.94131C17.0854 4.75094 13.9044 4.57319 12.1136 4.57319L11.9674 4.57369C7.92015 4.60244 6.3544 5.32106 5.75365 5.91881C4.6269 7.03944 4.00427 8.53144 4.00002 10.1202C3.99577 11.7089 4.6109 13.2043 5.73177 14.3307C6.34765 14.9501 6.8329 15.2883 7.82765 15.4706C7.8294 16.2094 7.8244 17.4673 7.81665 18.6214C7.81452 18.9289 7.9889 19.2104 8.26515 19.3454C8.37665 19.4002 8.49702 19.4268 8.61665 19.4268C8.7929 19.4268 8.96802 19.3686 9.11202 19.2551L13.7298 15.6153C15.2189 15.4244 17.5705 15.0252 18.2465 14.3524C19.3733 13.2321 19.9959 11.7399 20 10.1508C20.0041 8.56219 19.3896 7.06719 18.2696 5.94106L18.2695 5.94131ZM17.1279 13.2087C16.7966 13.4526 15.0215 13.8468 13.3125 14.0552C13.1669 14.0728 13.0291 14.1302 12.9139 14.2209L9.42627 16.9701C9.43615 14.7291 9.41852 14.6667 9.3864 14.5529C9.29677 14.2362 9.02227 14.0066 8.6944 13.9746C7.51965 13.8597 7.32852 13.6673 6.86627 13.2026C6.04677 12.3788 5.59702 11.2856 5.60002 10.1243C5.60302 8.96294 6.05827 7.87231 6.88215 7.05294C7.2759 6.66119 8.84715 6.19581 11.9788 6.17356L12.1135 6.17306C14.5449 6.17306 16.6099 6.54169 17.135 7.06969C17.9539 7.89256 18.4031 8.98556 18.4001 10.1469C18.3971 11.3037 17.9454 12.3904 17.128 13.2086L17.1279 13.2087Z" fill="#2D2B29"/>
</svg>
