<svg width="24" height="24" viewBox="0 0 24 24" fill="none" xmlns="http://www.w3.org/2000/svg">
<path d="M19.2958 7.49731L16.4107 4.61231C16.0984 4.30006 15.6888 4.14369 15.2793 4.14369C14.8723 4.14369 14.4652 4.29794 14.1534 4.60706L5.20466 13.4714C4.95404 13.7196 4.79254 14.0436 4.74516 14.3931L4.25016 18.0412C4.18029 18.5558 4.36454 19.0722 4.74441 19.4264C5.04341 19.7054 5.43454 19.8563 5.83566 19.8563C5.94379 19.8563 9.56091 19.1174 9.56091 19.1174C9.86616 19.0541 10.1464 18.9031 10.3668 18.6826L19.2953 9.76044C19.5957 9.46044 19.7644 9.05344 19.7644 8.62894C19.7644 8.20456 19.5959 7.79744 19.2958 7.49731ZM9.23591 17.5508L7.49191 17.9127L6.06466 16.5686L6.33054 14.6082L15.2793 5.74381L18.164 8.62881L9.23566 17.5507L9.23591 17.5508Z" fill="#2D2B29"/>
<path d="M16.378 8.65344L9.26597 15.5778L8.26147 14.5461L15.3735 7.62169L16.378 8.65344Z" fill="#2D2B29"/>
</svg>
